<svg width="1920" height="1080" viewBox="0 0 1920 1080" fill="none" xmlns="http://www.w3.org/2000/svg">
  <defs>
    <linearGradient id="sky" x1="960" y1="0" x2="960" y2="1080" gradientUnits="userSpaceOnUse">
      <stop stop-color="#8BD7FF"/>
      <stop offset="0.58" stop-color="#5DAED4"/>
      <stop offset="1" stop-color="#1A3226"/>
    </linearGradient>
    <radialGradient id="sun" cx="0" cy="0" r="1" gradientUnits="userSpaceOnUse" gradientTransform="translate(1120 210) rotate(90) scale(320 320)">
      <stop stop-color="#FFF8D2" stop-opacity="0.95"/>
      <stop offset="1" stop-color="#FFF8D2" stop-opacity="0"/>
    </radialGradient>
  </defs>
  <rect width="1920" height="1080" fill="url(#sky)"/>
  <rect x="120" y="120" width="280" height="70" fill="#E9F2E8" opacity="0.9"/>
  <rect x="490" y="95" width="360" height="85" fill="#EEF5EC" opacity="0.92"/>
  <rect x="890" y="130" width="280" height="70" fill="#EAF2E8" opacity="0.9"/>
  <rect x="1260" y="95" width="420" height="95" fill="#ECF3EA" opacity="0.88"/>
  <rect x="1730" y="140" width="220" height="65" fill="#EAF2E8" opacity="0.88"/>
  <circle cx="1120" cy="210" r="330" fill="url(#sun)"/>

  <rect x="0" y="500" width="170" height="580" fill="#11301F"/>
  <rect x="140" y="420" width="120" height="660" fill="#0B2718"/>
  <rect x="220" y="540" width="180" height="540" fill="#123521"/>
  <rect x="370" y="430" width="150" height="650" fill="#0D2A1A"/>
  <rect x="500" y="360" width="165" height="720" fill="#143B24"/>
  <rect x="650" y="520" width="200" height="560" fill="#10331F"/>
  <rect x="820" y="410" width="150" height="670" fill="#0B2718"/>
  <rect x="940" y="550" width="220" height="530" fill="#123822"/>
  <rect x="1130" y="430" width="180" height="650" fill="#0C291A"/>
  <rect x="1280" y="510" width="220" height="570" fill="#11301F"/>
  <rect x="1460" y="390" width="180" height="690" fill="#0A2617"/>
  <rect x="1600" y="470" width="200" height="610" fill="#123622"/>
  <rect x="1760" y="530" width="190" height="550" fill="#0B2819"/>

  <rect x="120" y="690" width="220" height="240" fill="#1F5D33" opacity="0.85"/>
  <rect x="330" y="650" width="260" height="280" fill="#2B7540" opacity="0.86"/>
  <rect x="560" y="670" width="280" height="260" fill="#215F35" opacity="0.84"/>
  <rect x="820" y="640" width="260" height="290" fill="#2C7C42" opacity="0.86"/>
  <rect x="1060" y="700" width="290" height="230" fill="#1F5E35" opacity="0.84"/>
  <rect x="1320" y="660" width="280" height="270" fill="#2E8046" opacity="0.86"/>
  <rect x="1570" y="700" width="290" height="230" fill="#205F35" opacity="0.84"/>

  <rect x="860" y="875" width="260" height="140" fill="#2A4FA8" opacity="0.72"/>
  <rect x="0" y="930" width="1920" height="150" fill="#08130D" opacity="0.9"/>
</svg>
